#!OML:ASF F:\VICON\USERDATA\INSTALL\rory3\rory3.ASF
:FULLY-SPECIFIED
:DEGREES
2532
root -3.427 16.8869 4.79189 1.87306 56.2992 5.61197
lowerback 12.5371 -3.76723 -5.1295
upperback 3.85427 -5.51635 0.0167466
thorax -2.45957 -2.71381 3.66212
lowerneck -2.22442 -7.45847 -12.0948
upperneck 3.99532 -10.1059 12.0136
head 2.78117 -4.95546 5.19614
rclavicle -6.24619e-014 -1.61513e-015
rhumerus -22.9423 11.7019 -84.0595
rradius 121.801
rwrist 15.6881
rhand -31.7 6.99678
rfingers 7.12502
rthumb -4.95907 -22.9252
lclavicle -6.24619e-014 -1.61513e-015
lhumerus -17.7149 -32.1277 95.5054
lradius 120.235
lwrist 10.4079
lhand -9.7828 15.2436
lfingers 7.12502
lthumb 16.1928 44.5872
rfemur -22.5562 19.1141 -5.49504
rtibia 45.7036
rfoot -20.6399 -2.1958
rtoes -22.5664
lfemur -1.76941 0.931557 -5.09065
ltibia 48.2221
lfoot -22.1526 5.84612
ltoes -27.3201
2533
root -3.42903 16.9419 4.80861 2.31884 56.4168 6.51836
lowerback 13.9829 -3.79236 -5.59601
upperback 2.90488 -5.75595 -0.24079
thorax -4.20285 -2.7519 3.85732
lowerneck -1.89273 -7.37068 -11.9301
upperneck 5.08492 -10.0741 11.5593
head 3.0122 -4.95159 5.03112
rclavicle -5.35569e-014 -1.54058e-015
rhumerus -25.3517 12.2469 -85.396
rradius 121.557
rwrist 15.8069
rhand -32.9387 5.46414
rfingers 7.12502
rthumb -6.15499 -24.4264
lclavicle -5.35569e-014 -1.54058e-015
lhumerus -19.9493 -32.1863 96.7433
lradius 120.604
lwrist 10.2395
lhand -9.8366 15.3459
lfingers 7.12502
lthumb 16.141 44.6938
rfemur -21.9321 18.9855 -5.91639
rtibia 45.2974
rfoot -19.9674 -1.8978
rtoes -23.4242
lfemur -1.34595 0.869644 -5.5422
ltibia 47.8111
lfoot -21.2309 5.519
ltoes -26.5317
2534
root -3.43027 16.9985 4.82133 2.41828 56.4717 6.85668
lowerback 14.3978 -3.81876 -5.95682
upperback 2.52753 -5.89712 -0.314848
thorax -4.78614 -2.78764 4.05786
lowerneck -1.84409 -7.33472 -11.8948
upperneck 5.72587 -10.0541 11.2623
head 3.17472 -4.94686 4.92937
rclavicle 2.3021e-014 2.13569e-014
rhumerus -26.6047 12.4532 -86.2739
rradius 121.314
rwrist 15.5704
rhand -32.6339 5.20804
rfingers 7.12502
rthumb -5.8608 -24.6909
lclavicle 2.3021e-014 2.13569e-014
lhumerus -20.8413 -32.3404 97.3129
lradius 120.87
lwrist 10.0803
lhand -9.89801 15.7664
lfingers 7.12502
lthumb 16.0819 45.119
rfemur -21.4645 18.9339 -6.09678
rtibia 44.8412
rfoot -19.2381 -1.26954
rtoes -23.617
lfemur -1.03898 0.934071 -5.63354
ltibia 47.394
lfoot -20.3935 5.03065
ltoes -25.1906
2535
root -3.43153 17.0542 4.82838 2.07991 56.4174 6.57406
lowerback 14.5169 -3.85102 -6.07168
upperback 2.29395 -5.97599 -0.225397
thorax -5.06972 -2.80936 4.25172
lowerneck -2.01206 -7.26947 -12.0803
upperneck 6.27107 -9.96274 11.0687
head 3.3535 -4.90394 4.89243
rclavicle 1.12476e-014 -2.00648e-015
rhumerus -27.4907 12.7181 -86.8967
rradius 121.227
rwrist 15.4347
rhand -32.0054 4.46315
rfingers 7.12502
rthumb -5.25399 -25.4517
lclavicle 1.12476e-014 -2.00648e-015
lhumerus -21.1858 -32.427 97.6541
lradius 121.04
lwrist 9.98984
lhand -9.8814 15.5869
lfingers 7.12502
lthumb 16.0979 44.9382
rfemur -21.1557 19.0103 -5.99347
rtibia 44.3302
rfoot -18.3598 -0.466415
rtoes -23.4516
lfemur -0.833546 1.16158 -5.33541
ltibia 47.0413
lfoot -19.5139 4.59146
ltoes -24.5738
2536
root -3.42851 17.1049 4.83049 1.78601 56.3179 6.43334
lowerback 14.4607 -3.83737 -6.22931
upperback 2.21143 -5.98403 -0.213763
thorax -5.10837 -2.80826 4.35204
lowerneck -2.16858 -7.2167 -12.1342
upperneck 6.62942 -9.88012 10.8682
head 3.46924 -4.86472 4.83487
rclavicle -2.04453e-014 -2.68359e-015
rhumerus -28.2192 12.8468 -87.4073
rradius 121.161
rwrist 15.3815
rhand -31.971 4.18782
rfingers 7.12502
rthumb -5.22072 -25.7279
lclavicle -2.04453e-014 -2.68359e-015
lhumerus -21.0787 -32.7399 97.7586
lradius 121.069
lwrist 9.81625
lhand -10.0785 15.2512
lfingers 7.12502
lthumb 15.908 44.6178
rfemur -20.8038 19.0621 -6.02242
rtibia 43.7885
rfoot -17.4036 0.485577
rtoes -23.6544
lfemur -0.542276 1.38649 -5.18053
ltibia 46.7687
lfoot -18.7491 4.27453
ltoes -24.2576
2537
root -3.42279 17.1501 4.8276 1.22619 56.226 6.03109
lowerback 14.2885 -3.8258 -6.20354
upperback 2.2453 -5.95075 -0.187549
thorax -4.98156 -2.79931 4.34273
lowerneck -2.37613 -7.19055 -12.175
upperneck 6.92083 -9.82642 10.7064
head 3.57852 -4.83764 4.78415
rclavicle 1.35279e-013 6.11263e-015
rhumerus -28.6517 12.8717 -87.7099
rradius 121.025
rwrist 15.2458
rhand -31.971 4.61942
rfingers 7.12502
rthumb -5.22072 -25.2963
lclavicle 1.35279e-013 6.11263e-015
lhumerus -20.6909 -33.1666 97.731
lradius 121.063
lwrist 9.53818
lhand -10.1713 15.1424
lfingers 7.12502
lthumb 15.8187 44.5161
rfemur -20.4319 19.1436 -5.92372
rtibia 43.2452
rfoot -16.3727 1.53245
rtoes -23.0525
lfemur -0.249485 1.54909 -4.91614
ltibia 46.5985
lfoot -18.1329 4.14674
ltoes -24.1183
2538
root -3.41774 17.1886 4.81946 0.685769 56.1561 5.60357
lowerback 13.9841 -3.80221 -6.13571
upperback 2.32826 -5.885 -0.181757
thorax -4.74041 -2.78104 4.26934
lowerneck -2.52607 -7.18815 -12.2517
upperneck 7.07641 -9.8101 10.6649
head 3.6499 -4.82837 4.77742
rclavicle -3.30976e-014 -1.69961e-014
rhumerus -28.8755 12.8408 -87.8601
rradius 120.968
rwrist 15.1754
rhand -32.0024 4.68602
rfingers 7.12502
rthumb -5.25105 -25.2289
lclavicle -3.30976e-014 -1.69961e-014
lhumerus -20.0775 -33.6432 97.5574
lradius 121.099
lwrist 9.31952
lhand -9.82451 15.2168
lfingers 7.12502
lthumb 16.1526 44.5638
rfemur -20.1682 19.2315 -5.86812
rtibia 42.7471
rfoot -15.2834 2.59392
rtoes -21.8292
lfemur -0.036752 1.65251 -4.65352
ltibia 46.5171
lfoot -17.7792 3.81104
ltoes -22.9681
2539
root -3.41364 17.2219 4.80801 0.334364 56.051 5.33037
lowerback 13.5598 -3.76193 -6.19514
upperback 2.43973 -5.80782 -0.204914
thorax -4.39492 -2.76016 4.22282
lowerneck -2.7552 -7.18784 -12.3554
upperneck 7.1689 -9.79182 10.7289
head 3.72197 -4.81324 4.80573
rclavicle 4.20367e-014 -1.07344e-014
rhumerus -29.0416 12.8142 -87.9036
rradius 121.023
rwrist 15.2417
rhand -32.2233 4.60761
rfingers 7.12502
rthumb -5.46434 -25.3019
lclavicle 4.20367e-014 -1.07344e-014
lhumerus -19.2972 -34.1741 97.2824
lradius 121.146
lwrist 9.07576
lhand -9.62586 15.2703
lfingers 7.12502
lthumb 16.3439 44.6017
rfemur -20.037 19.3244 -5.96029
rtibia 42.3062
rfoot -14.3231 3.67803
rtoes -21.6935
lfemur 0.0990511 1.71122 -4.53234
ltibia 46.5352
lfoot -17.6858 3.35276
ltoes -21.4015
2540
root -3.40867 17.2484 4.79474 -0.220023 55.9341 4.94058
lowerback 13.1956 -3.75325 -6.21943
upperback 2.64038 -5.76329 -0.191693
thorax -3.98423 -2.75937 4.20097
lowerneck -3.26798 -7.20468 -12.5854
upperneck 7.36125 -9.76781 10.8295
head 3.87884 -4.78891 4.8548
rclavicle 2.29969e-014 3.97569e-016
rhumerus -28.968 12.915 -87.7387
rradius 121.072
rwrist 15.4042
rhand -32.5044 4.75147
rfingers 7.12502
rthumb -5.7357 -25.1509
lclavicle 2.29969e-014 3.97569e-016
lhumerus -18.3079 -34.6304 96.8802
lradius 121.213
lwrist 8.863
lhand -9.81417 15.1913
lfingers 7.12502
lthumb 16.1626 44.5374
rfemur -19.829 19.4681 -5.95973
rtibia 41.9485
rfoot -13.5023 4.78619
rtoes -22.1306
lfemur 0.302459 1.73561 -4.35814
ltibia 46.6415
lfoot -17.77 3.03331
ltoes -21.0365
